<svg xmlns="http://www.w3.org/2000/svg" width="63.478" height="16.566" viewBox="0 0 63.478 16.566"><g transform="translate(-1.962 -47.727)"><g transform="translate(1.962 47.727)"><path d="M279.921,195.275a1.942,1.942,0,0,0-.941,3.625v3.419a3.416,3.416,0,0,1-6.8.146,4.87,4.87,0,0,0,3.88-4.761v-4.718a.728.728,0,0,0-.585-.714l-1.91-.383a.727.727,0,0,0-.857.571l-.1.476a.726.726,0,0,0,.57.856l.932.186v3.686a2.914,2.914,0,1,1-5.829.037v-3.719l.931-.186a.728.728,0,0,0,.571-.857l-.094-.476a.727.727,0,0,0-.856-.571l-1.908.377a.73.73,0,0,0-.586.716V197.7a4.866,4.866,0,0,0,3.888,4.761,5.352,5.352,0,0,0,10.684-.146V198.9a1.943,1.943,0,0,0-1-3.625Zm.027,2.755a.812.812,0,1,1,.811-.813A.815.815,0,0,1,279.948,198.031Z" transform="translate(-266.347 -191.364)" fill="#1f1e1e"/><path d="M374.535,203.492a1.36,1.36,0,1,1-2.039-1.177v-2.222a.68.68,0,1,1,1.36,0v2.222A1.36,1.36,0,0,1,374.535,203.492Zm1.555-2.529a3.886,3.886,0,0,1-2.914,6.457h-.028a3.886,3.886,0,0,1-2.887-6.457V194.79a2.915,2.915,0,1,1,5.829,0Zm-.485,2.57a2.818,2.818,0,0,0-.972-2.019V194.79a1.457,1.457,0,1,0-2.915,0v6.725a2.82,2.82,0,0,0-.972,2.006,2.439,2.439,0,0,0,2.412,2.442h.018A2.431,2.431,0,0,0,375.6,203.534Z" transform="translate(-313.585 -191.364)" fill="#1f1e1e"/><g transform="translate(26.016)"><path d="M331.7,217.542a6.341,6.341,0,0,0,2.987-.635.408.408,0,0,1,.56.306.826.826,0,0,1-.472.9,6.057,6.057,0,0,1-2.9.461,6.922,6.922,0,0,1-5.441-3.268.133.133,0,0,1,.2-.173,9.864,9.864,0,0,0,5.064,2.412" transform="translate(-319.929 -202.021)" fill="#1f1e1e"/><path d="M325.944,193.547c-7.013,4.774-3.287,9.958-2.052,11.367a.086.086,0,0,0,.149-.076c-.993-4.839,1.041-7.615,1.041-7.615q-.15.387-.275.761a15.943,15.943,0,0,0-.311,6.891.087.087,0,0,0,.145.048c6.826-6.349,1.3-11.376,1.3-11.376" transform="translate(-317.807 -192.131)" fill="#1f1e1e"/><path d="M320.651,193.637a10.25,10.25,0,0,0-5.253-2.706c-3.333,8.371,2.8,11.967,4.837,12.9a.039.039,0,0,0,.046-.061,9.121,9.121,0,0,1-1.8-3.041,6.182,6.182,0,0,1-1.61-2.543,3.113,3.113,0,0,1-.19-.6s.06.24.19.6c.015.036.031.071.047.106a10.115,10.115,0,0,1-.594-4.149A10.392,10.392,0,0,0,318.28,200c-.4-1.841-.064-4.106,2.371-6.363" transform="translate(-314.425 -190.931)" fill="#1f1e1e"/></g></g></g></svg>