<svg xmlns="http://www.w3.org/2000/svg" width="136.573" height="42.578" viewBox="0 0 136.573 42.578"><g transform="translate(0)"><path d="M268.1,128.943a14.3,14.3,0,0,1-3.995-2.724,10.232,10.232,0,0,1-2.378-3.617,10.459,10.459,0,0,1-.491-3.125,6.874,6.874,0,0,1,.4-2.354,5.9,5.9,0,0,1,1.126-1.926,5.219,5.219,0,0,1,1.694-1.274,4.742,4.742,0,0,1,2.047-.456,3.7,3.7,0,0,1,2.252.671,2.783,2.783,0,0,1,.912,1.123.538.538,0,0,1-.445.751,4.231,4.231,0,0,0-2.5,1.028,3.41,3.41,0,0,0-.865,1.228,4.063,4.063,0,0,0-.308,1.6c0,1.117-.049,3.234,3.047,5.716a10.115,10.115,0,0,0,6.011,2,4.674,4.674,0,0,0,3.331-1.358,4.339,4.339,0,0,0,.977-1.517,5.163,5.163,0,0,0,.344-1.889A7.29,7.29,0,0,0,278,118.948a17.809,17.809,0,0,0-1.108-1.535q-.6-.754-1.684-2-.968-1.116-1.619-1.935a16.324,16.324,0,0,1-1.172-1.675,7.74,7.74,0,0,1-1.266-4.056,6.135,6.135,0,0,1,.632-2.764,6.656,6.656,0,0,1,1.8-2.223,8.64,8.64,0,0,1,2.736-1.47,10.578,10.578,0,0,1,3.368-.521,7.8,7.8,0,0,1,4.931,1.451,4.8,4.8,0,0,1,1.369,1.694,5,5,0,0,1,.474,2.2,4.028,4.028,0,0,1-.8,2.587,2.5,2.5,0,0,1-.921.744,2.672,2.672,0,0,1-1.162.26,2.786,2.786,0,0,1-1.379-.341.974.974,0,0,1-.3-1.46,3.837,3.837,0,0,0,.494-.776,4.2,4.2,0,0,0,.418-1.851,2.606,2.606,0,0,0-.726-1.945,2.711,2.711,0,0,0-1.991-.717,3.485,3.485,0,0,0-1.405.279,2.986,2.986,0,0,0-1.089.8,3.661,3.661,0,0,0-.716,1.228,4.585,4.585,0,0,0-.251,1.545,4.992,4.992,0,0,0,.558,2.289,11.358,11.358,0,0,0,1.6,2.289q.93,1.1,2.01,2.177a17.06,17.06,0,0,1,3.554,5.081,8.319,8.319,0,0,1,.615,3.238,7.881,7.881,0,0,1-.763,3.452,8.12,8.12,0,0,1-2.178,2.763,10.286,10.286,0,0,1-3.293,1.842,12.194,12.194,0,0,1-4.02.651,19.339,19.339,0,0,1-6.623-1.3" transform="translate(-261.237 -87.665)" fill="#0e0e0e"/><path d="M328.883,143.732a6.558,6.558,0,0,1-1.563-4.763,15.966,15.966,0,0,1,.27-2.829,18.329,18.329,0,0,1,.791-2.94,13.822,13.822,0,0,1,3.257-5.285,7.691,7.691,0,0,1,5.489-2.288,4.114,4.114,0,0,1,2.317.53,1.632,1.632,0,0,1,.772,1.4v.28l.275-1.361a.832.832,0,0,1,.815-.667h3.783a.832.832,0,0,1,.814,1l-2.523,11.947a4.235,4.235,0,0,0-.167,1.229q0,1.637,1.563,1.637a2.438,2.438,0,0,0,1.9-1.061,7.075,7.075,0,0,0,1.191-2.531h1.6a14.367,14.367,0,0,1-2.474,4.6,7.264,7.264,0,0,1-2.773,2.01,6.5,6.5,0,0,1-2.4.447,3.655,3.655,0,0,1-2.578-.884,4.069,4.069,0,0,1-1.162-2.614,10.013,10.013,0,0,1-2.27,2.382,5.632,5.632,0,0,1-3.405,1.117,4.721,4.721,0,0,1-3.517-1.359m6.895-2.549a3.727,3.727,0,0,0,.921-.633,4.8,4.8,0,0,0,1.339-2.512l1.824-8.6a1.4,1.4,0,0,0-.084-.437,1.985,1.985,0,0,0-.232-.475,1.531,1.531,0,0,0-1.247-.54,2.545,2.545,0,0,0-1.48.5,5.712,5.712,0,0,0-1.349,1.4,14.125,14.125,0,0,0-1.843,4.225,17.371,17.371,0,0,0-.5,2.28,14,14,0,0,0-.167,2.038,3.529,3.529,0,0,0,.707,2.568,1.092,1.092,0,0,0,.539.335,2.78,2.78,0,0,0,.67.074,2.126,2.126,0,0,0,.9-.224" transform="translate(-301.943 -102.977)" fill="#0e0e0e"/><path d="M381.233,128.334a4.71,4.71,0,0,1-1.191-3.48,12.255,12.255,0,0,1,.3-2.493l4.477-20.868a1.031,1.031,0,0,1,.871-.806l3.72-.5a.851.851,0,0,1,.947,1.021l-4.674,21.882a4.235,4.235,0,0,0-.149,1.228,1.4,1.4,0,0,0,.362,1.1,1.787,1.787,0,0,0,1.182.316,2.515,2.515,0,0,0,1.088-.252,3.47,3.47,0,0,0,.977-.7,5.733,5.733,0,0,0,1.376-2.419h1.6a13.557,13.557,0,0,1-2.569,4.6,7.706,7.706,0,0,1-2.94,2.01,7.041,7.041,0,0,1-2.493.447,3.854,3.854,0,0,1-2.884-1.079" transform="translate(-334.418 -87.3)" fill="#0e0e0e"/><path d="M407.58,143.732a6.557,6.557,0,0,1-1.563-4.763,15.894,15.894,0,0,1,.269-2.829,18.365,18.365,0,0,1,.791-2.94,13.82,13.82,0,0,1,3.256-5.285,7.691,7.691,0,0,1,5.49-2.288,4.113,4.113,0,0,1,2.316.53,1.631,1.631,0,0,1,.773,1.4v.28l.275-1.361a.83.83,0,0,1,.815-.667h3.781a.831.831,0,0,1,.815,1l-2.523,11.947a4.274,4.274,0,0,0-.167,1.229q0,1.637,1.564,1.637a2.441,2.441,0,0,0,1.9-1.061,7.075,7.075,0,0,0,1.19-2.531h1.6a14.368,14.368,0,0,1-2.475,4.6,7.265,7.265,0,0,1-2.772,2.01,6.505,6.505,0,0,1-2.4.447,3.652,3.652,0,0,1-2.577-.884,4.073,4.073,0,0,1-1.163-2.614,10.012,10.012,0,0,1-2.27,2.382,5.63,5.63,0,0,1-3.405,1.117,4.72,4.72,0,0,1-3.517-1.359m6.895-2.549a3.719,3.719,0,0,0,.921-.633,4.8,4.8,0,0,0,1.339-2.512l1.823-8.6a1.387,1.387,0,0,0-.084-.438,1.971,1.971,0,0,0-.232-.475,1.529,1.529,0,0,0-1.247-.54,2.541,2.541,0,0,0-1.478.5,5.692,5.692,0,0,0-1.349,1.4,14.107,14.107,0,0,0-1.843,4.225,17.376,17.376,0,0,0-.5,2.28,13.949,13.949,0,0,0-.167,2.038,3.531,3.531,0,0,0,.707,2.568,1.094,1.094,0,0,0,.54.335,2.775,2.775,0,0,0,.67.074,2.122,2.122,0,0,0,.9-.224" transform="translate(-350.418 -102.977)" fill="#0e0e0e"/><path d="M476.854,143.751a4.4,4.4,0,0,1-.986-2.959,10.9,10.9,0,0,1,.213-1.991q.214-1.135.642-2.921.427-1.824.642-2.912a10.022,10.022,0,0,0,.214-1.889q0-1.954-1.377-1.954a2.307,2.307,0,0,0-1.786,1.023,7.768,7.768,0,0,0-1.191,2.494l-2.587,12.226h-5.49l2.792-13.157a3.918,3.918,0,0,0,.111-.949,2.34,2.34,0,0,0-.241-1.173,1.016,1.016,0,0,0-.913-.5,2.332,2.332,0,0,0-1.88,1.042,7.788,7.788,0,0,0-1.209,2.512l-2.586,12.226h-5.49l3.9-18.4a.834.834,0,0,1,.815-.659h3.793a.833.833,0,0,1,.815,1l-.2.972a6.483,6.483,0,0,1,2.437-1.768,6.252,6.252,0,0,1,2.215-.391,4.019,4.019,0,0,1,2.549.744,3.952,3.952,0,0,1,1.359,2.531,7.213,7.213,0,0,1,2.829-2.679,5.529,5.529,0,0,1,2.475-.558,4.366,4.366,0,0,1,3.033,1,4.266,4.266,0,0,1,1.19,3.294,17.736,17.736,0,0,1-.465,3.443q-.186.912-.446,1.842-.464,1.786-.762,3.294a7,7,0,0,0-.149,1.265,1.816,1.816,0,0,0,.344,1.182,1.454,1.454,0,0,0,1.182.419,2.412,2.412,0,0,0,1.917-.931,9.417,9.417,0,0,0,1.284-2.438h1.6q-1.415,4.187-3.572,5.861a5.557,5.557,0,0,1-3.518,1.191,4.331,4.331,0,0,1-3.5-1.34" transform="translate(-381.042 -102.977)" fill="#0e0e0e"/><path d="M534.391,143.732a6.556,6.556,0,0,1-1.564-4.763,15.937,15.937,0,0,1,.27-2.829,18.4,18.4,0,0,1,.791-2.94,13.825,13.825,0,0,1,3.256-5.285,7.692,7.692,0,0,1,5.49-2.288,4.113,4.113,0,0,1,2.317.53,1.632,1.632,0,0,1,.773,1.4v.28l.274-1.361a.832.832,0,0,1,.816-.667H550.6a.832.832,0,0,1,.814,1l-2.523,11.947a4.261,4.261,0,0,0-.167,1.229q0,1.637,1.563,1.637a2.441,2.441,0,0,0,1.9-1.061,7.075,7.075,0,0,0,1.19-2.531h1.6a14.36,14.36,0,0,1-2.474,4.6,7.26,7.26,0,0,1-2.773,2.01,6.5,6.5,0,0,1-2.4.447,3.654,3.654,0,0,1-2.577-.884,4.071,4.071,0,0,1-1.163-2.614,9.988,9.988,0,0,1-2.27,2.382,5.63,5.63,0,0,1-3.4,1.117,4.721,4.721,0,0,1-3.517-1.359m6.894-2.549a3.675,3.675,0,0,0,.921-.633,4.8,4.8,0,0,0,1.34-2.512l1.823-8.6a1.437,1.437,0,0,0-.083-.438,1.978,1.978,0,0,0-.233-.475,1.528,1.528,0,0,0-1.247-.54,2.543,2.543,0,0,0-1.479.5,5.706,5.706,0,0,0-1.35,1.4,14.126,14.126,0,0,0-1.842,4.225,17.244,17.244,0,0,0-.5,2.28,13.9,13.9,0,0,0-.167,2.038,3.534,3.534,0,0,0,.707,2.568,1.094,1.094,0,0,0,.54.335,2.759,2.759,0,0,0,.669.074,2.121,2.121,0,0,0,.9-.224" transform="translate(-428.53 -102.977)" fill="#0e0e0e"/><path d="M586.74,132.736a4.715,4.715,0,0,1-1.19-3.48,12.333,12.333,0,0,1,.3-2.493l3.855-17.682a1.706,1.706,0,0,1,1.437-1.326l3.141-.425a.931.931,0,0,1,1.035,1.119l-4.127,19.039a4.26,4.26,0,0,0-.149,1.228,1.4,1.4,0,0,0,.363,1.1,1.782,1.782,0,0,0,1.181.316,2.516,2.516,0,0,0,1.088-.252,3.475,3.475,0,0,0,.977-.7,5.3,5.3,0,0,0,1.117-1.7,1.158,1.158,0,0,1,1.062-.716.554.554,0,0,1,.512.762,12.79,12.79,0,0,1-2.281,3.834,7.7,7.7,0,0,1-2.94,2.01,7.044,7.044,0,0,1-2.493.447,3.858,3.858,0,0,1-2.885-1.079" transform="translate(-461.006 -91.702)" fill="#0e0e0e"/><path d="M590.656,120.59a9.352,9.352,0,0,0,4.414-.938.6.6,0,0,1,.828.454,1.22,1.22,0,0,1-.7,1.324,8.948,8.948,0,0,1-4.279.681,10.229,10.229,0,0,1-8.041-4.831.2.2,0,0,1,.291-.255,14.56,14.56,0,0,0,7.485,3.565" transform="translate(-459.344 -97.653)" fill="#176f65"/><path d="M579.354,72.1c-10.363,7.056-4.858,14.717-3.034,16.8a.128.128,0,0,0,.221-.112c-1.468-7.152,1.538-11.255,1.538-11.255-.149.382-.284.757-.407,1.125a23.574,23.574,0,0,0-.46,10.183.129.129,0,0,0,.215.071c10.088-9.384,1.927-16.813,1.927-16.813" transform="translate(-453.412 -70.004)" fill="#176f65"/><path d="M567.076,70.647a15.139,15.139,0,0,0-7.762-4c-4.926,12.372,4.142,17.685,7.148,19.061a.057.057,0,0,0,.068-.089,13.484,13.484,0,0,1-2.654-4.5,9.139,9.139,0,0,1-2.38-3.757,4.571,4.571,0,0,1-.283-.885s.09.355.283.885c.022.052.044.105.068.157a14.973,14.973,0,0,1-.876-6.133,15.345,15.345,0,0,0,2.886,8.657c-.592-2.721-.1-6.068,3.5-9.4" transform="translate(-443.959 -66.649)" fill="#176f65"/></g></svg>